<mxfile host="app.diagrams.net" modified="2023-09-10T16:00:49.807Z" agent="Mozilla/5.0 (Windows NT 10.0; Win64; x64) AppleWebKit/537.36 (KHTML, like Gecko) Chrome/116.0.0.0 Safari/537.36" etag="JEO3aBOi8IvUztPtssAF" version="21.7.4" type="device">
  <diagram name="Page-1" id="EZHB2wXNZw8YtRh0WK4C">
    <mxGraphModel dx="1434" dy="758" grid="1" gridSize="10" guides="1" tooltips="1" connect="1" arrows="1" fold="1" page="1" pageScale="1" pageWidth="827" pageHeight="1169" math="0" shadow="0">
      <root>
        <mxCell id="0" />
        <mxCell id="1" parent="0" />
        <mxCell id="njociAYN94yBQqB4wYre-1" value="FOR" style="rounded=0;whiteSpace=wrap;html=1;shadow=0;comic=0;strokeOpacity=100;strokeColor=default;strokeWidth=1.2;" vertex="1" parent="1">
          <mxGeometry x="80" y="270" width="40" height="20" as="geometry" />
        </mxCell>
        <mxCell id="njociAYN94yBQqB4wYre-2" value="METADATA" style="rounded=0;whiteSpace=wrap;html=1;shadow=0;comic=0;strokeOpacity=100;strokeColor=default;strokeWidth=1.2;" vertex="1" parent="1">
          <mxGeometry x="130" y="270" width="80" height="20" as="geometry" />
        </mxCell>
        <mxCell id="njociAYN94yBQqB4wYre-3" value="(" style="rounded=1;whiteSpace=wrap;html=1;arcSize=50;shadow=0;comic=0;strokeOpacity=100;strokeColor=default;strokeWidth=1.2;" vertex="1" parent="1">
          <mxGeometry x="220" y="270" width="30" height="20" as="geometry" />
        </mxCell>
        <mxCell id="njociAYN94yBQqB4wYre-4" value=")" style="rounded=1;whiteSpace=wrap;html=1;arcSize=50;shadow=0;comic=0;strokeOpacity=100;strokeColor=default;strokeWidth=1.2;" vertex="1" parent="1">
          <mxGeometry x="420" y="270" width="30" height="20" as="geometry" />
        </mxCell>
        <mxCell id="njociAYN94yBQqB4wYre-5" value="COMMENT" style="rounded=0;whiteSpace=wrap;html=1;shadow=0;comic=0;strokeOpacity=100;strokeColor=default;strokeWidth=1.2;" vertex="1" parent="1">
          <mxGeometry x="286" y="240" width="96" height="20" as="geometry" />
        </mxCell>
        <mxCell id="njociAYN94yBQqB4wYre-6" value="SHEET_NAME" style="rounded=0;whiteSpace=wrap;html=1;shadow=0;comic=0;strokeOpacity=100;strokeColor=default;strokeWidth=1.2;" vertex="1" parent="1">
          <mxGeometry x="286" y="270" width="96" height="20" as="geometry" />
        </mxCell>
        <mxCell id="njociAYN94yBQqB4wYre-7" value="SHEET_INDEX" style="rounded=0;whiteSpace=wrap;html=1;shadow=0;comic=0;strokeOpacity=100;strokeColor=default;strokeWidth=1.2;" vertex="1" parent="1">
          <mxGeometry x="286" y="300" width="96" height="20" as="geometry" />
        </mxCell>
        <mxCell id="njociAYN94yBQqB4wYre-8" value="" style="endArrow=open;html=1;endFill=0;shadow=0;comic=0;exitX=1;exitY=0.5;exitDx=0;exitDy=0;strokeOpacity=100;strokeColor=default;strokeWidth=1.2;" edge="1" parent="1" source="njociAYN94yBQqB4wYre-4">
          <mxGeometry width="50" height="50" relative="1" as="geometry">
            <mxPoint x="470" y="279.71000000000004" as="sourcePoint" />
            <mxPoint x="480" y="280" as="targetPoint" />
          </mxGeometry>
        </mxCell>
        <mxCell id="njociAYN94yBQqB4wYre-9" value="" style="endArrow=none;html=1;exitX=1;exitY=0.5;exitDx=0;exitDy=0;entryX=0;entryY=0.5;entryDx=0;entryDy=0;shadow=0;comic=0;strokeOpacity=100;strokeColor=default;strokeWidth=1.2;" edge="1" parent="1" source="njociAYN94yBQqB4wYre-1" target="njociAYN94yBQqB4wYre-2">
          <mxGeometry width="50" height="50" relative="1" as="geometry">
            <mxPoint x="180" y="154" as="sourcePoint" />
            <mxPoint x="190" y="154" as="targetPoint" />
          </mxGeometry>
        </mxCell>
        <mxCell id="njociAYN94yBQqB4wYre-10" value="" style="endArrow=none;html=1;exitX=1;exitY=0.5;exitDx=0;exitDy=0;entryX=0;entryY=0.5;entryDx=0;entryDy=0;strokeOpacity=100;shadow=0;strokeColor=default;strokeWidth=1.2;" edge="1" parent="1" source="njociAYN94yBQqB4wYre-2" target="njociAYN94yBQqB4wYre-3">
          <mxGeometry width="50" height="50" relative="1" as="geometry">
            <mxPoint x="350" y="220" as="sourcePoint" />
            <mxPoint x="400" y="170" as="targetPoint" />
          </mxGeometry>
        </mxCell>
        <mxCell id="njociAYN94yBQqB4wYre-11" value="" style="endArrow=none;html=1;exitX=1;exitY=0.5;exitDx=0;exitDy=0;entryX=0;entryY=0.5;entryDx=0;entryDy=0;strokeOpacity=100;shadow=0;strokeColor=default;strokeWidth=1.2;" edge="1" parent="1" source="njociAYN94yBQqB4wYre-3" target="njociAYN94yBQqB4wYre-6">
          <mxGeometry width="50" height="50" relative="1" as="geometry">
            <mxPoint x="350" y="220" as="sourcePoint" />
            <mxPoint x="400" y="170" as="targetPoint" />
          </mxGeometry>
        </mxCell>
        <mxCell id="njociAYN94yBQqB4wYre-12" value="" style="endArrow=none;html=1;exitX=1;exitY=0.5;exitDx=0;exitDy=0;entryX=0;entryY=0.5;entryDx=0;entryDy=0;strokeOpacity=100;shadow=0;strokeColor=default;strokeWidth=1.2;" edge="1" parent="1" source="njociAYN94yBQqB4wYre-3" target="njociAYN94yBQqB4wYre-5">
          <mxGeometry width="50" height="50" relative="1" as="geometry">
            <mxPoint x="350" y="220" as="sourcePoint" />
            <mxPoint x="400" y="170" as="targetPoint" />
            <Array as="points">
              <mxPoint x="270" y="280" />
              <mxPoint x="270" y="250" />
            </Array>
          </mxGeometry>
        </mxCell>
        <mxCell id="njociAYN94yBQqB4wYre-13" value="" style="endArrow=none;html=1;exitX=1;exitY=0.5;exitDx=0;exitDy=0;entryX=0;entryY=0.5;entryDx=0;entryDy=0;strokeOpacity=100;shadow=0;strokeColor=default;strokeWidth=1.2;" edge="1" parent="1" source="njociAYN94yBQqB4wYre-3" target="njociAYN94yBQqB4wYre-7">
          <mxGeometry width="50" height="50" relative="1" as="geometry">
            <mxPoint x="238" y="340" as="sourcePoint" />
            <mxPoint x="282" y="310" as="targetPoint" />
            <Array as="points">
              <mxPoint x="270" y="280" />
              <mxPoint x="270" y="310" />
            </Array>
          </mxGeometry>
        </mxCell>
        <mxCell id="njociAYN94yBQqB4wYre-14" value="" style="endArrow=none;html=1;exitX=1;exitY=0.5;exitDx=0;exitDy=0;entryX=0;entryY=0.5;entryDx=0;entryDy=0;strokeOpacity=100;shadow=0;strokeColor=default;strokeWidth=1.2;" edge="1" parent="1" source="njociAYN94yBQqB4wYre-5" target="njociAYN94yBQqB4wYre-4">
          <mxGeometry width="50" height="50" relative="1" as="geometry">
            <mxPoint x="350" y="220" as="sourcePoint" />
            <mxPoint x="400" y="170" as="targetPoint" />
            <Array as="points">
              <mxPoint x="400" y="250" />
              <mxPoint x="400" y="280" />
            </Array>
          </mxGeometry>
        </mxCell>
        <mxCell id="njociAYN94yBQqB4wYre-15" value="" style="endArrow=none;html=1;exitX=1;exitY=0.5;exitDx=0;exitDy=0;entryX=0;entryY=0.5;entryDx=0;entryDy=0;strokeOpacity=100;shadow=0;strokeColor=default;strokeWidth=1.2;" edge="1" parent="1" source="njociAYN94yBQqB4wYre-7" target="njociAYN94yBQqB4wYre-4">
          <mxGeometry width="50" height="50" relative="1" as="geometry">
            <mxPoint x="350" y="220" as="sourcePoint" />
            <mxPoint x="400" y="170" as="targetPoint" />
            <Array as="points">
              <mxPoint x="400" y="310" />
              <mxPoint x="400" y="280" />
            </Array>
          </mxGeometry>
        </mxCell>
        <mxCell id="njociAYN94yBQqB4wYre-16" value="" style="endArrow=none;html=1;exitX=1;exitY=0.5;exitDx=0;exitDy=0;entryX=0;entryY=0.5;entryDx=0;entryDy=0;strokeOpacity=100;shadow=0;strokeColor=default;strokeWidth=1.2;" edge="1" parent="1" source="njociAYN94yBQqB4wYre-6" target="njociAYN94yBQqB4wYre-4">
          <mxGeometry width="50" height="50" relative="1" as="geometry">
            <mxPoint x="350" y="220" as="sourcePoint" />
            <mxPoint x="400" y="170" as="targetPoint" />
          </mxGeometry>
        </mxCell>
        <mxCell id="njociAYN94yBQqB4wYre-17" value="" style="endArrow=open;html=1;endFill=0;sourcePerimeterSpacing=0;targetPerimeterSpacing=0;jumpSize=6;shadow=0;comic=0;strokeOpacity=100;strokeColor=default;strokeWidth=1.2;" edge="1" parent="1">
          <mxGeometry width="50" height="50" relative="1" as="geometry">
            <mxPoint x="40" y="279.97" as="sourcePoint" />
            <mxPoint x="70" y="279.97" as="targetPoint" />
          </mxGeometry>
        </mxCell>
        <mxCell id="njociAYN94yBQqB4wYre-18" value="" style="endArrow=none;html=1;entryX=0;entryY=0.5;entryDx=0;entryDy=0;endFill=0;sourcePerimeterSpacing=0;targetPerimeterSpacing=0;jumpSize=6;shadow=0;comic=0;strokeOpacity=100;strokeColor=default;strokeWidth=1.2;" edge="1" parent="1" target="njociAYN94yBQqB4wYre-1">
          <mxGeometry width="50" height="50" relative="1" as="geometry">
            <mxPoint x="40" y="280" as="sourcePoint" />
            <mxPoint x="60" y="279.71000000000004" as="targetPoint" />
          </mxGeometry>
        </mxCell>
      </root>
    </mxGraphModel>
  </diagram>
</mxfile>
